fd_1_states
version=1
nRows=27
nColumns=17
inDegrees=yes

# SIMM Motion File Header:
name fd_1_states
datacolumns 17
datarows 27
otherdata 1
range 0.030000 0.048656
endheader
time	/jointset/r_shoulder/r_shoulder_elev/value	/jointset/r_shoulder/r_shoulder_elev/speed	/jointset/r_elbow/r_elbow_flex/value	/jointset/r_elbow/r_elbow_flex/speed	/forceset/TRIlong/activation	/forceset/TRIlong/fiber_length	/forceset/TRIlat/activation	/forceset/TRIlat/fiber_length	/forceset/TRImed/activation	/forceset/TRImed/fiber_length	/forceset/BIClong/activation	/forceset/BIClong/fiber_length	/forceset/BICshort/activation	/forceset/BICshort/fiber_length	/forceset/BRA/activation	/forceset/BRA/fiber_length
      0.030000	      0.000000	      0.000000	      8.400020	    280.000005	      0.022299	      0.139439	      0.020000	      0.073399	      0.020000	      0.068439	      0.020000	      0.147002	      0.021993	      0.146339	      0.104115	      0.091171
      0.030076	     -0.000000	     -0.000506	      8.421392	    280.002615	      0.022297	      0.139447	      0.020000	      0.073407	      0.020000	      0.068455	      0.020028	      0.146997	      0.022887	      0.146334	      0.104053	      0.091166
      0.030153	     -0.000000	     -0.001373	      8.442765	    280.006244	      0.022295	      0.139455	      0.020000	      0.073415	      0.020000	      0.068467	      0.020061	      0.146992	      0.023942	      0.146328	      0.103979	      0.091160
      0.030534	     -0.000002	     -0.007097	      8.549634	    280.028079	      0.022283	      0.139497	      0.020000	      0.073456	      0.020000	      0.068514	      0.020218	      0.146968	      0.028957	      0.146296	      0.103610	      0.091134
      0.031217	     -0.000010	     -0.017114	      8.740918	    280.065482	      0.022262	      0.139571	      0.020000	      0.073530	      0.020000	      0.068589	      0.020473	      0.146924	      0.036955	      0.146224	      0.102956	      0.091087
      0.032299	     -0.000036	     -0.030802	      9.043741	    280.116841	      0.022230	      0.139688	      0.020000	      0.073647	      0.020000	      0.068704	      0.020815	      0.146853	      0.047505	      0.146092	      0.101938	      0.091013
      0.033285	     -0.000072	     -0.040425	      9.320036	    280.154330	      0.022201	      0.139795	      0.020000	      0.073754	      0.020000	      0.068814	      0.021072	      0.146787	      0.055340	      0.145966	      0.101027	      0.090945
      0.034146	     -0.000110	     -0.049547	      9.561451	    280.188471	      0.022176	      0.139889	      0.020000	      0.073848	      0.020000	      0.068904	      0.021260	      0.146729	      0.061078	      0.145855	      0.100244	      0.090887
      0.035008	     -0.000156	     -0.055691	      9.802893	    280.213288	      0.022151	      0.139983	      0.020000	      0.073942	      0.020000	      0.069000	      0.021420	      0.146671	      0.065971	      0.145746	      0.099474	      0.090829
      0.035870	     -0.000207	     -0.062235	     10.044355	    280.238479	      0.022126	      0.140078	      0.020000	      0.074036	      0.020000	      0.069091	      0.021556	      0.146612	      0.070160	      0.145639	      0.098716	      0.090771
      0.036731	     -0.000262	     -0.065838	     10.285836	    280.254204	      0.022102	      0.140172	      0.020000	      0.074131	      0.020000	      0.069188	      0.021672	      0.146553	      0.073759	      0.145534	      0.097969	      0.090713
      0.037593	     -0.000320	     -0.069146	     10.527329	    280.267976	      0.022078	      0.140267	      0.020000	      0.074225	      0.020000	      0.069279	      0.021770	      0.146493	      0.076858	      0.145433	      0.097234	      0.090655
      0.038455	     -0.000380	     -0.069003	     10.768830	    280.270463	      0.022054	      0.140362	      0.020000	      0.074320	      0.020000	      0.069376	      0.021854	      0.146434	      0.079534	      0.145334	      0.096511	      0.090597
      0.039316	     -0.000439	     -0.067755	     11.010330	    280.268302	      0.022031	      0.140457	      0.020000	      0.074415	      0.020000	      0.069468	      0.021925	      0.146373	      0.081847	      0.145238	      0.095798	      0.090540
      0.039818	     -0.000472	     -0.065063	     11.150866	    280.260596	      0.022017	      0.140512	      0.020000	      0.074470	      0.020000	      0.069524	      0.021961	      0.146338	      0.083048	      0.145183	      0.095389	      0.090506
      0.040025	     -0.000486	     -0.063751	     11.208802	    280.256666	      0.022012	      0.140535	      0.020000	      0.074493	      0.020000	      0.069547	      0.022048	      0.146323	      0.083444	      0.145160	      0.095232	      0.090492
      0.040159	     -0.000494	     -0.062818	     11.246464	    280.253821	      0.022008	      0.140550	      0.020000	      0.074508	      0.020000	      0.069562	      0.022789	      0.146313	      0.083405	      0.145146	      0.095303	      0.090483
      0.040293	     -0.000502	     -0.061842	     11.284126	    280.250815	      0.022005	      0.140565	      0.020000	      0.074523	      0.020000	      0.069577	      0.023599	      0.146303	      0.083354	      0.145132	      0.095401	      0.090474
      0.040965	     -0.000542	     -0.056849	     11.472427	    280.235438	      0.021987	      0.140639	      0.020000	      0.074597	      0.020000	      0.069651	      0.027337	      0.146247	      0.083101	      0.145062	      0.095859	      0.090429
      0.042591	     -0.000627	     -0.049439	     11.927921	    280.215311	      0.021944	      0.140819	      0.020000	      0.074776	      0.020000	      0.069829	      0.034568	      0.146101	      0.082500	      0.144904	      0.096787	      0.090317
      0.043398	     -0.000666	     -0.048104	     12.154126	    280.214336	      0.021923	      0.140908	      0.020000	      0.074867	      0.020000	      0.069920	      0.037399	      0.146027	      0.082207	      0.144829	      0.097167	      0.090262
      0.044205	     -0.000706	     -0.050045	     12.380335	    280.224015	      0.021903	      0.140998	      0.020000	      0.074956	      0.020000	      0.070008	      0.039831	      0.145953	      0.081918	      0.144757	      0.097503	      0.090206
      0.045247	     -0.000760	     -0.053424	     12.672220	    280.239988	      0.021877	      0.141114	      0.020000	      0.075072	      0.020000	      0.070126	      0.042474	      0.145860	      0.081551	      0.144666	      0.097877	      0.090134
      0.046055	     -0.000805	     -0.058773	     12.898718	    280.260471	      0.021856	      0.141204	      0.020000	      0.075162	      0.020000	      0.070212	      0.044204	      0.145788	      0.081271	      0.144597	      0.098129	      0.090078
      0.046863	     -0.000854	     -0.062838	     13.125231	    280.276893	      0.021837	      0.141294	      0.020000	      0.075253	      0.020000	      0.070304	      0.045697	      0.145717	      0.080994	      0.144528	      0.098351	      0.090022
      0.047860	     -0.000920	     -0.069154	     13.404669	    280.299883	      0.021812	      0.141405	      0.020000	      0.075364	      0.020000	      0.070412	      0.047263	      0.145630	      0.080658	      0.144445	      0.098590	      0.089953
      0.048656	     -0.000976	     -0.071392	     13.627724	    280.308813	      0.021793	      0.141494	      0.020000	      0.075453	      0.020000	      0.070505	      0.048327	      0.145561	      0.080393	      0.144379	      0.098755	      0.089898
